<svg width="100" height="77" viewBox="0 0 100 77" fill="none" xmlns="http://www.w3.org/2000/svg">
<path id="Vector" d="M9.10198 69.5392C3.38237 63.4622 0.311523 56.6466 0.311523 45.5984C0.311523 26.1572 13.9554 8.73232 33.7964 0.116943L38.7551 7.77114C20.2358 17.7919 16.6152 30.7954 15.1715 38.9941C18.1535 37.4497 22.0574 36.9111 25.8833 37.2664C35.9011 38.1942 43.7975 46.4206 43.7975 56.6466C43.7975 61.8028 41.7498 66.748 38.1048 70.3937C34.4601 74.0398 29.5163 76.0881 24.3616 76.0881C21.5113 76.0631 18.6939 75.4712 16.0742 74.3471C13.4544 73.2226 11.0843 71.5882 9.10198 69.5392ZM64.6324 69.5392C58.9127 63.4622 55.8421 56.6466 55.8421 45.5984C55.8421 26.1572 69.4859 8.73232 89.3269 0.116943L94.2857 7.77114C75.7664 17.7919 72.1457 30.7954 70.702 38.9941C73.684 37.4497 77.5876 36.9111 81.4138 37.2664C91.4313 38.1942 99.3277 46.4206 99.3277 56.6466C99.3277 61.8028 97.2803 66.748 93.6353 70.3937C89.9903 74.0398 85.0469 76.0881 79.8922 76.0881C77.0415 76.0631 74.2244 75.4712 71.6046 74.3471C68.9848 73.2226 66.6149 71.5882 64.6324 69.5392Z" fill="#191919"/>
</svg>
